<svg fill="#000000" xmlns="http://www.w3.org/2000/svg" viewBox="0 0 50 50" width="100px" height="100px"><path d="M 28.8125 0 L 0.8125 5.3125 C 0.3125 5.414063 0 5.914063 0 6.3125 L 0 43.59375 C 0 44.09375 0.3125 44.492188 0.8125 44.59375 L 28.8125 49.90625 L 29 49.90625 C 29.199219 49.90625 29.492188 49.789063 29.59375 49.6875 C 29.792969 49.488281 30 49.207031 30 48.90625 L 30 1 C 30 0.699219 29.894531 0.386719 29.59375 0.1875 C 29.394531 -0.0117188 29.113281 0 28.8125 0 Z M 32 6 L 32 13 L 40 13 L 40 23 L 44 23 L 39 28 L 34 23 L 38 23 L 38 15 L 32 15 L 32 27.5 L 36.5 32 L 32 36.5 L 32 44 L 47 44 C 48.101563 44 49 43.101563 49 42 L 49 8 C 49 6.898438 48.101563 6 47 6 Z M 9.1875 15.6875 L 15.8125 15.6875 C 20.511719 15.6875 22.90625 17.6875 22.90625 21.6875 C 22.804688 23.488281 22.210938 24.988281 20.8125 26.1875 C 19.414063 27.386719 17.605469 27.90625 15.40625 27.90625 L 13.40625 27.90625 L 13.40625 34.3125 L 9.1875 34.3125 Z M 13.3125 18.90625 L 13.3125 24.6875 L 15 24.6875 C 17.199219 24.6875 18.40625 23.710938 18.40625 21.8125 C 18.40625 19.914063 17.300781 18.90625 15 18.90625 Z"/></svg>